<svg width="512" height="512" viewBox="0 0 512 512" fill="none" xmlns="http://www.w3.org/2000/svg">
<path d="M425.5 135.4C430.2 129.5 433 121.9 433 113.8C433 94.6 417.4 79 398.2 79C390 79 382.5 81.8 376.6 86.5C342.6 62.3 300.9 48 256 48C141.1 48 48 141.1 48 256C48 370.9 141.1 464 256 464C370.9 464 464 370.9 464 256C464 211.1 449.7 169.4 425.5 135.4ZM391.8 391.8C374.2 409.4 353.6 423.3 330.7 433C307 443 281.9 448.1 255.9 448.1C230 448.1 204.8 443 181.1 433C158.2 423.3 137.7 409.5 120 391.8C102.4 374.2 88.5 353.6 78.8 330.7C68.8 307 63.7 281.9 63.7 255.9C63.7 230 68.8 204.8 78.8 181.1C88.5 158.2 102.3 137.7 120 120C137.7 102.3 158.2 88.5 181.1 78.8C204.8 68.8 229.9 63.7 255.9 63.7C281.8 63.7 307 68.8 330.7 78.8C343.4 84.2 355.4 90.9 366.6 98.8C364.5 103.3 363.3 108.3 363.3 113.7C363.3 132.9 378.9 148.5 398.1 148.5C403.4 148.5 408.4 147.3 413 145.2C420.9 156.4 427.6 168.4 433 181.1C443 204.8 448.1 229.9 448.1 255.9C448.1 281.8 443 307 433 330.7C423.3 353.6 409.5 374.2 391.8 391.8Z" fill="#316BFF"/>
<path d="M256 352.1C309.075 352.1 352.1 309.075 352.1 256C352.1 202.925 309.075 159.9 256 159.9C202.925 159.9 159.9 202.925 159.9 256C159.9 309.075 202.925 352.1 256 352.1Z" fill="#316BFF"/>
</svg>
